HIERARCHY
ROOT Hips
{
	OFFSET 0.000000 0.000000 0.000000 
	CHANNELS 6 Xposition Yposition Zposition Zrotation Yrotation Xrotation
	JOINT LeftUpLeg
	{
		OFFSET 1.363060 -1.794630 0.839290 
		CHANNELS 3 Zrotation Yrotation Xrotation
		JOINT LeftLeg
		{
			OFFSET 2.448110 -6.726130 0.000000 
			CHANNELS 3 Zrotation Yrotation Xrotation
			JOINT LeftFoot
			{
				OFFSET 2.562200 -7.039590 0.000000 
				CHANNELS 3 Zrotation Yrotation Xrotation
				JOINT LeftToeBase
				{
					OFFSET 0.157640 -0.433110 2.322550 
					CHANNELS 3 Zrotation Yrotation Xrotation
					End Site
					{
						OFFSET 0.000000 0.000000 0.000000 
					}
				}
			}
		}
	}
	JOINT RightUpLeg
	{
		OFFSET -1.305520 -1.794630 0.839290 
		CHANNELS 3 Zrotation Yrotation Xrotation
		JOINT RightLeg
		{
			OFFSET -2.542530 -6.985550 0.000000 
			CHANNELS 3 Zrotation Yrotation Xrotation
			JOINT RightFoot
			{
				OFFSET -2.568260 -7.056230 0.000000 
				CHANNELS 3 Zrotation Yrotation Xrotation
				JOINT RightToeBase
				{
					OFFSET -0.164730 -0.452590 2.363150 
					CHANNELS 3 Zrotation Yrotation Xrotation
					End Site
					{
						OFFSET 0.000000 0.000000 0.000000 
					}
				}
			}
		}
	}
	JOINT Spine
	{
		OFFSET 0.028270 2.035590 -0.193380 
		CHANNELS 3 Zrotation Yrotation Xrotation
		JOINT Spine1
		{
			OFFSET 0.056720 2.048850 -0.042750 
			CHANNELS 3 Zrotation Yrotation Xrotation
			JOINT Neck1
			{
				OFFSET -0.054170 1.746240 0.172020 
				CHANNELS 3 Zrotation Yrotation Xrotation
				JOINT Head
				{
					OFFSET 0.104070 1.761360 -0.123970 
					CHANNELS 3 Zrotation Yrotation Xrotation
					End Site
					{
						OFFSET 0.000000 0.000000 0.000000 
					}
				}
			}
			JOINT LeftArm
			{
				OFFSET 3.362410 1.200890 -0.311210 
				CHANNELS 3 Zrotation Yrotation Xrotation
				JOINT LeftForeArm
				{
					OFFSET 4.983000 -0.000000 -0.000000 
					CHANNELS 3 Zrotation Yrotation Xrotation
					JOINT LeftHand
					{
						OFFSET 3.483560 -0.000000 -0.000000 
						CHANNELS 3 Zrotation Yrotation Xrotation
						JOINT LeftHandIndex1
						{
							OFFSET 0.715260 -0.000000 -0.000000 
							CHANNELS 3 Zrotation Yrotation Xrotation
							End Site
							{
								OFFSET 0.000000 0.000000 0.000000 
							}
						}
					}
				}
			}
			JOINT RightArm
			{
				OFFSET -3.136600 1.374050 -0.404650 
				CHANNELS 3 Zrotation Yrotation Xrotation
				JOINT RightForeArm
				{
					OFFSET -5.241900 -0.000000 -0.000000 
					CHANNELS 3 Zrotation Yrotation Xrotation
					JOINT RightHand
					{
						OFFSET -3.444170 -0.000000 -0.000000 
						CHANNELS 3 Zrotation Yrotation Xrotation
						JOINT RightHandIndex1
						{
							OFFSET -0.622530 -0.000000 -0.000000 
							CHANNELS 3 Zrotation Yrotation Xrotation
							End Site
							{
								OFFSET 0.000000 0.000000 0.000000 
							}
						}
					}
				}
			}
		}
	}
}
MOTION
Frames: 9
Frame Time: 0.041667
11.133772 17.950497 -44.666028 -3.135191 1.466463 4.121317 -9.042485 -12.950029 -17.992687 -0.504178 11.332847 30.440588 -1.137564 6.633088 1.526577 3.003400 -10.700500 -31.276500 33.004303 9.022031 -4.894805 2.309234 -7.796811 24.202564 4.762508 -19.094233 -16.092740 -0.437700 -4.245100 11.767400 2.185909 0.484962 0.679207 -3.946883 0.187039 -13.017641 13.416558 -6.847375 11.114206 2.301800 -2.909400 4.152100 -89.252510 9.919225 19.158367 27.831316 -28.236236 -8.390415 1.088610 1.150158 5.903838 -7.125000 0.000000 0.000000 86.946624 -9.782884 20.140189 -22.133178 25.359125 -6.321331 1.126113 0.428996 20.129313 7.125000 0.000000 0.000000 
11.125750 17.951323 -44.672988 -3.137593 1.457704 4.131769 -9.009652 -12.880050 -18.037515 -0.505432 11.329969 30.415938 -1.186797 6.747149 1.702402 3.217200 -11.038600 -32.410100 33.054616 9.036133 -4.911295 2.307762 -7.802614 24.206279 4.773373 -19.114741 -16.025582 -0.433900 -4.227100 11.716400 2.120772 0.446757 0.474235 -3.973330 0.159759 -13.141255 13.609339 -6.749167 11.148418 2.372000 -2.852000 4.143400 -89.186018 10.070417 19.172367 27.940265 -28.365566 -8.459377 1.124629 1.126685 5.777477 -7.125000 0.000000 0.000000 87.023022 -9.988446 20.328511 -22.269029 25.518111 -6.388083 1.121807 0.422710 20.236793 7.125000 0.000000 0.000000 
11.115723 17.950851 -44.685375 -3.089065 1.505386 4.190603 -9.007377 -12.800495 -18.162150 -0.510658 11.327300 30.384111 -1.159287 6.687978 1.912637 3.275600 -11.128400 -32.714200 33.031595 9.040726 -5.039580 2.304900 -7.819196 24.221527 4.782575 -19.116819 -15.934921 -0.448800 -4.298300 11.917400 2.170131 0.352607 0.405307 -3.895934 0.124977 -13.162992 13.726964 -6.642354 11.075288 2.428500 -2.803200 4.115400 -89.216326 10.075939 19.107576 28.125723 -28.572925 -8.568413 1.163810 1.093396 5.544067 -7.125000 0.000000 0.000000 86.925194 -9.973230 20.616308 -22.312071 25.566630 -6.407441 1.120746 0.420386 20.311027 7.125000 0.000000 0.000000 
11.115015 17.946250 -44.679004 -3.036785 1.188196 3.931799 -9.110679 -12.536560 -17.963778 -0.493836 11.323726 30.451903 -1.210407 6.796830 1.855868 3.379900 -11.286000 -33.250600 33.004804 9.006362 -4.779191 2.274751 -7.826480 24.318456 4.733308 -18.954485 -15.865744 -0.438600 -4.249600 11.779900 2.054711 0.470680 0.639215 -3.947973 0.182719 -13.148949 13.699762 -6.658370 10.986009 2.411100 -2.817300 4.085400 -89.122999 10.059396 19.463335 28.335720 -28.771388 -8.665431 1.164306 1.060623 5.465186 -7.125000 0.000000 0.000000 86.978518 -9.967543 20.671841 -22.334652 25.590207 -6.410067 1.120108 0.422133 20.394292 7.125000 0.000000 0.000000 
11.110179 17.945778 -44.679830 -2.980647 1.068279 3.969947 -9.148922 -12.426230 -18.032134 -0.488227 11.336803 30.468082 -1.349740 7.108779 1.950721 3.518300 -11.490300 -33.951800 32.946994 9.095064 -4.841814 2.262071 -7.859121 24.400426 4.709672 -18.895123 -15.918157 -0.412900 -4.124800 11.428100 1.970391 0.548376 0.690302 -3.960199 0.222220 -13.041423 13.664883 -6.736883 10.939489 2.387600 -2.858000 4.084500 -88.971013 9.917325 19.793230 28.415464 -28.856424 -8.717563 1.179693 1.048940 5.303829 -7.125000 0.000000 0.000000 87.039028 -9.941780 20.585763 -22.345494 25.599171 -6.409803 1.120925 0.421282 20.515757 7.125000 0.000000 0.000000 
11.091186 17.942003 -44.708496 -2.937897 1.371743 4.088843 -9.092220 -12.367341 -18.329487 -0.483318 11.361595 30.467165 -1.291150 6.985977 2.287530 3.569100 -11.563700 -34.205600 32.997855 9.154233 -5.071446 2.265521 -7.896658 24.450764 4.732917 -19.023592 -16.125764 -0.448200 -4.295000 11.908200 1.927675 0.410820 0.524758 -3.891812 0.161355 -13.195140 13.641387 -6.790730 11.017602 2.374300 -2.877100 4.127700 -88.822951 9.895143 20.019710 28.512501 -28.960556 -8.776195 1.187064 1.038227 5.293586 -7.125000 0.000000 0.000000 87.099278 -9.885012 20.541907 -22.348357 25.604979 -6.405659 1.122732 0.413156 20.831712 7.125000 0.000000 0.000000 
11.076087 17.937875 -44.724893 -2.968864 1.526786 4.067069 -9.016552 -12.264102 -18.479066 -0.462995 11.382884 30.520583 -1.178150 6.736035 2.482775 3.389000 -11.299600 -33.297000 33.123631 9.199240 -5.109327 2.262006 -7.917053 24.489828 4.767688 -19.152720 -16.179521 -0.503400 -4.548200 12.624300 2.034723 0.329376 0.701558 -3.818789 0.132658 -13.117381 13.546304 -6.801674 11.073730 2.340600 -2.878900 4.184000 -88.782840 9.802015 20.216837 28.680111 -29.135071 -8.879849 1.183347 1.032904 5.394403 -7.125000 0.000000 0.000000 87.031631 -9.714073 20.593463 -22.408554 25.667737 -6.423179 1.127168 0.400664 21.127308 7.125000 0.000000 0.000000 
11.066178 17.933628 -44.734920 -3.031212 1.592020 3.958502 -8.938918 -12.195783 -18.505776 -0.432162 11.405847 30.611529 -1.065497 6.482577 2.660723 2.997100 -10.690400 -31.242800 33.270747 9.198151 -5.028866 2.258741 -7.917583 24.495494 4.829196 -19.334926 -16.132986 -0.504400 -4.552900 12.637600 2.124045 0.284201 0.861520 -3.788173 0.114454 -13.081329 13.462514 -6.803301 11.120908 2.309400 -2.877300 4.218700 -88.764087 9.764749 20.369034 28.873802 -29.354227 -9.018440 1.181633 1.037598 5.420053 -7.125000 0.000000 0.000000 87.004828 -9.671174 20.783590 -22.535875 25.812587 -6.475890 1.124232 0.400752 21.097673 7.125000 0.000000 0.000000 
11.058274 17.930797 -44.742706 -3.098085 1.562466 3.892420 -8.865346 -12.090275 -18.553617 -0.400665 11.433270 30.710215 -0.959342 6.244695 2.775311 2.846300 -10.442100 -30.420400 33.392514 9.214220 -4.955739 2.268210 -7.898110 24.441650 4.861621 -19.429680 -16.089650 -0.481300 -4.448700 12.342600 2.203350 0.295696 0.927651 -3.776434 0.121171 -13.058631 13.433565 -6.789381 11.061971 2.297600 -2.875400 4.195600 -88.729575 9.709770 20.512186 28.959105 -29.444585 -9.068737 1.216212 1.007392 5.431725 -7.125000 0.000000 0.000000 87.007012 -9.686010 20.903885 -22.653423 25.952645 -6.542543 1.120929 0.397441 20.996819 7.125000 0.000000 0.000000 
